<svg id="カート" xmlns="http://www.w3.org/2000/svg" width="19.62" height="17.564" viewBox="0 0 19.62 17.564">
  <path id="パス_2" data-name="パス 2" d="M179.23,416.756a1.673,1.673,0,1,0,1.673,1.674A1.673,1.673,0,0,0,179.23,416.756Z" transform="translate(-171.043 -402.538)" fill="#fff"/>
  <path id="パス_3" data-name="パス 3" d="M370.422,416.756a1.673,1.673,0,1,0,1.673,1.674A1.673,1.673,0,0,0,370.422,416.756Z" transform="translate(-356.135 -402.538)" fill="#fff"/>
  <path id="パス_4" data-name="パス 4" d="M5.8,30.457,5.06,27.733.025,26.822,0,26.941v1.786l3.415.618,2.833,10.4H17.313l2.307-8.7Zm9.928,7.414H7.821l-1.5-5.516,10.753.454Z" transform="translate(0 -26.822)" fill="#fff"/>
</svg>
